<?xml version="1.0" encoding="UTF-8" standalone="no"?>
<!DOCTYPE svg PUBLIC "-//W3C//DTD SVG 1.1//EN"
 "http://www.w3.org/Graphics/SVG/1.1/DTD/svg11.dtd">
<!-- Generated by graphviz version 2.28.0 (20120909.1057)
 -->
<!-- Title: controllers_diagram Pages: 1 -->
<svg width="359pt" height="222pt"
 viewBox="0.00 0.00 359.44 222.00" xmlns="http://www.w3.org/2000/svg" xmlns:xlink="http://www.w3.org/1999/xlink">
<g id="graph1" class="graph" transform="scale(1 1) rotate(0) translate(4 218)">
<title>controllers_diagram</title>
<polygon fill="white" stroke="white" points="-4,5 -4,-218 356.44,-218 356.44,5 -4,5"/>
<!-- _diagram_info -->
<g id="node1" class="node"><title>_diagram_info</title>
<text text-anchor="start" x="184" y="-197" font-family="Times,serif" font-size="13.00">Controllers diagram</text>
<text text-anchor="start" x="184" y="-181.4" font-family="Times,serif" font-size="13.00">Date: Sep 11 2012 &#45; 23:10</text>
<text text-anchor="start" x="184" y="-165.8" font-family="Times,serif" font-size="13.00">Migration version: 0</text>
<text text-anchor="start" x="184" y="-150.2" font-family="Times,serif" font-size="13.00">Generated by RailRoady 1.0.9</text>
<text text-anchor="start" x="184" y="-134.6" font-family="Times,serif" font-size="13.00">http://railroady.prestonlee.com</text>
</g>
<!-- ApplicationController -->
<g id="node2" class="node"><title>ApplicationController</title>
<polyline fill="none" stroke="black" points="12,-0.5 183.635,-0.5 "/>
<path fill="none" stroke="black" d="M183.635,-0.5C189.635,-0.5 195.635,-6.5 195.635,-12.5"/>
<polyline fill="none" stroke="black" points="195.635,-12.5 195.635,-86.9 "/>
<path fill="none" stroke="black" d="M195.635,-86.9C195.635,-92.9 189.635,-98.9 183.635,-98.9"/>
<polyline fill="none" stroke="black" points="183.635,-98.9 12,-98.9 "/>
<path fill="none" stroke="black" d="M12,-98.9C6,-98.9 0,-92.9 0,-86.9"/>
<polyline fill="none" stroke="black" points="0,-86.9 0,-12.5 "/>
<path fill="none" stroke="black" d="M0,-12.5C0,-6.5 6,-0.5 12,-0.5"/>
<text text-anchor="middle" x="97.8174" y="-80.9" font-family="Times,serif" font-size="11.00">ApplicationController</text>
<polyline fill="none" stroke="black" points="0,-74.1 195.635,-74.1 "/>
<text text-anchor="start" x="8" y="-56.1" font-family="Times,serif" font-size="11.00">_one_time_conditions_valid_8?</text>
<polyline fill="none" stroke="black" points="0,-49.3 195.635,-49.3 "/>
<polyline fill="none" stroke="black" points="0,-25.3 195.635,-25.3 "/>
<text text-anchor="start" x="8" y="-7.3" font-family="Times,serif" font-size="11.00">_layout</text>
</g>
</g>
</svg>
