<?xml version="1.0" encoding="UTF-8" standalone="no"?>
<!DOCTYPE svg PUBLIC "-//W3C//DTD SVG 1.1//EN"
 "http://www.w3.org/Graphics/SVG/1.1/DTD/svg11.dtd">
<!-- Generated by graphviz version 2.28.0 (20120909.1057)
 -->
<!-- Title: controllers_diagram Pages: 1 -->
<svg width="435pt" height="241pt"
 viewBox="0.00 0.00 435.03 241.00" xmlns="http://www.w3.org/2000/svg" xmlns:xlink="http://www.w3.org/1999/xlink">
<g id="graph1" class="graph" transform="scale(1 1) rotate(0) translate(4 237)">
<title>controllers_diagram</title>
<polygon fill="white" stroke="white" points="-4,5 -4,-237 432.032,-237 432.032,5 -4,5"/>
<!-- _diagram_info -->
<g id="node1" class="node"><title>_diagram_info</title>
<text text-anchor="start" x="259.591" y="-216" font-family="Times,serif" font-size="13.00">Controllers diagram</text>
<text text-anchor="start" x="259.591" y="-200.4" font-family="Times,serif" font-size="13.00">Date: Sep 13 2012 &#45; 22:54</text>
<text text-anchor="start" x="259.591" y="-184.8" font-family="Times,serif" font-size="13.00">Migration version: 0</text>
<text text-anchor="start" x="259.591" y="-169.2" font-family="Times,serif" font-size="13.00">Generated by RailRoady 1.0.9</text>
<text text-anchor="start" x="259.591" y="-153.6" font-family="Times,serif" font-size="13.00">http://railroady.prestonlee.com</text>
</g>
<!-- ApplicationController -->
<g id="node2" class="node"><title>ApplicationController</title>
<polyline fill="none" stroke="black" points="11.5913,-35.0254 183.226,-35.0254 "/>
<path fill="none" stroke="black" d="M183.226,-35.0254C189.226,-35.0254 195.226,-41.0254 195.226,-47.0254"/>
<polyline fill="none" stroke="black" points="195.226,-47.0254 195.226,-121.425 "/>
<path fill="none" stroke="black" d="M195.226,-121.425C195.226,-127.425 189.226,-133.425 183.226,-133.425"/>
<polyline fill="none" stroke="black" points="183.226,-133.425 11.5913,-133.425 "/>
<path fill="none" stroke="black" d="M11.5913,-133.425C5.59131,-133.425 -0.408691,-127.425 -0.408691,-121.425"/>
<polyline fill="none" stroke="black" points="-0.408691,-121.425 -0.408691,-47.0254 "/>
<path fill="none" stroke="black" d="M-0.408691,-47.0254C-0.408691,-41.0254 5.59131,-35.0254 11.5913,-35.0254"/>
<text text-anchor="middle" x="97.4087" y="-115.425" font-family="Times,serif" font-size="11.00">ApplicationController</text>
<polyline fill="none" stroke="black" points="-0.408691,-108.625 195.226,-108.625 "/>
<text text-anchor="start" x="7.59131" y="-90.6254" font-family="Times,serif" font-size="11.00">_one_time_conditions_valid_8?</text>
<polyline fill="none" stroke="black" points="-0.408691,-83.8254 195.226,-83.8254 "/>
<polyline fill="none" stroke="black" points="-0.408691,-59.8254 195.226,-59.8254 "/>
<text text-anchor="start" x="7.59131" y="-41.8254" font-family="Times,serif" font-size="11.00">_layout</text>
</g>
<!-- StaticPagesController -->
<g id="node3" class="node"><title>StaticPagesController</title>
<polyline fill="none" stroke="black" points="215.226,-0.5 329.316,-0.5 "/>
<path fill="none" stroke="black" d="M329.316,-0.5C335.316,-0.5 341.316,-6.5 341.316,-12.5"/>
<polyline fill="none" stroke="black" points="341.316,-12.5 341.316,-103.7 "/>
<path fill="none" stroke="black" d="M341.316,-103.7C341.316,-109.7 335.316,-115.7 329.316,-115.7"/>
<polyline fill="none" stroke="black" points="329.316,-115.7 215.226,-115.7 "/>
<path fill="none" stroke="black" d="M215.226,-115.7C209.226,-115.7 203.226,-109.7 203.226,-103.7"/>
<polyline fill="none" stroke="black" points="203.226,-103.7 203.226,-12.5 "/>
<path fill="none" stroke="black" d="M203.226,-12.5C203.226,-6.5 209.226,-0.5 215.226,-0.5"/>
<text text-anchor="middle" x="272.271" y="-97.7" font-family="Times,serif" font-size="11.00">StaticPagesController</text>
<polyline fill="none" stroke="black" points="203.226,-90.9 341.316,-90.9 "/>
<text text-anchor="start" x="211.226" y="-72.9" font-family="Times,serif" font-size="11.00">help</text>
<text text-anchor="start" x="211.226" y="-56.1" font-family="Times,serif" font-size="11.00">home</text>
<polyline fill="none" stroke="black" points="203.226,-49.3 341.316,-49.3 "/>
<polyline fill="none" stroke="black" points="203.226,-25.3 341.316,-25.3 "/>
<text text-anchor="start" x="211.226" y="-7.3" font-family="Times,serif" font-size="11.00">_layout</text>
</g>
<!-- ApplicationController&#45;&gt;StaticPagesController -->
<g id="edge2" class="edge"><title>ApplicationController&#45;&gt;StaticPagesController</title>
<path fill="none" stroke="black" d="M195.319,-69.597C197.817,-69.2239 200.302,-68.8525 202.768,-68.4841"/>
</g>
</g>
</svg>
