<?xml version="1.0" encoding="UTF-8" standalone="no"?>
<!DOCTYPE svg PUBLIC "-//W3C//DTD SVG 1.1//EN"
 "http://www.w3.org/Graphics/SVG/1.1/DTD/svg11.dtd">
<!-- Generated by graphviz version 2.28.0 (20120909.1057)
 -->
<!-- Title: controllers_diagram Pages: 1 -->
<svg width="485pt" height="423pt"
 viewBox="0.00 0.00 485.02 422.71" xmlns="http://www.w3.org/2000/svg" xmlns:xlink="http://www.w3.org/1999/xlink">
<g id="graph1" class="graph" transform="scale(1 1) rotate(0) translate(4 418.711)">
<title>controllers_diagram</title>
<polygon fill="white" stroke="white" points="-4,5 -4,-418.711 482.019,-418.711 482.019,5 -4,5"/>
<!-- _diagram_info -->
<g id="node1" class="node"><title>_diagram_info</title>
<text text-anchor="start" x="277.643" y="-159" font-family="Times,serif" font-size="13.00">Controllers diagram</text>
<text text-anchor="start" x="277.643" y="-143.4" font-family="Times,serif" font-size="13.00">Date: Sep 24 2012 &#45; 08:43</text>
<text text-anchor="start" x="277.643" y="-127.8" font-family="Times,serif" font-size="13.00">Migration version: 20120923080222</text>
<text text-anchor="start" x="277.643" y="-112.2" font-family="Times,serif" font-size="13.00">Generated by RailRoady 1.0.9</text>
<text text-anchor="start" x="277.643" y="-96.6" font-family="Times,serif" font-size="13.00">http://railroady.prestonlee.com</text>
</g>
<!-- ApplicationController -->
<g id="node2" class="node"><title>ApplicationController</title>
<polyline fill="none" stroke="black" points="21.8643,-158.011 193.499,-158.011 "/>
<path fill="none" stroke="black" d="M193.499,-158.011C199.499,-158.011 205.499,-164.011 205.499,-170.011"/>
<polyline fill="none" stroke="black" points="205.499,-170.011 205.499,-244.411 "/>
<path fill="none" stroke="black" d="M205.499,-244.411C205.499,-250.411 199.499,-256.411 193.499,-256.411"/>
<polyline fill="none" stroke="black" points="193.499,-256.411 21.8643,-256.411 "/>
<path fill="none" stroke="black" d="M21.8643,-256.411C15.8643,-256.411 9.86434,-250.411 9.86434,-244.411"/>
<polyline fill="none" stroke="black" points="9.86434,-244.411 9.86434,-170.011 "/>
<path fill="none" stroke="black" d="M9.86434,-170.011C9.86434,-164.011 15.8643,-158.011 21.8643,-158.011"/>
<text text-anchor="middle" x="107.682" y="-238.411" font-family="Times,serif" font-size="11.00">ApplicationController</text>
<polyline fill="none" stroke="black" points="9.86434,-231.611 205.499,-231.611 "/>
<text text-anchor="start" x="17.8643" y="-213.611" font-family="Times,serif" font-size="11.00">_one_time_conditions_valid_8?</text>
<polyline fill="none" stroke="black" points="9.86434,-206.811 205.499,-206.811 "/>
<polyline fill="none" stroke="black" points="9.86434,-182.811 205.499,-182.811 "/>
<text text-anchor="start" x="17.8643" y="-164.811" font-family="Times,serif" font-size="11.00">_layout</text>
</g>
<!-- StaticPagesController -->
<g id="node3" class="node"><title>StaticPagesController</title>
<polyline fill="none" stroke="black" points="152.006,-265.411 266.096,-265.411 "/>
<path fill="none" stroke="black" d="M266.096,-265.411C272.096,-265.411 278.096,-271.411 278.096,-277.411"/>
<polyline fill="none" stroke="black" points="278.096,-277.411 278.096,-402.211 "/>
<path fill="none" stroke="black" d="M278.096,-402.211C278.096,-408.211 272.096,-414.211 266.096,-414.211"/>
<polyline fill="none" stroke="black" points="266.096,-414.211 152.006,-414.211 "/>
<path fill="none" stroke="black" d="M152.006,-414.211C146.006,-414.211 140.006,-408.211 140.006,-402.211"/>
<polyline fill="none" stroke="black" points="140.006,-402.211 140.006,-277.411 "/>
<path fill="none" stroke="black" d="M140.006,-277.411C140.006,-271.411 146.006,-265.411 152.006,-265.411"/>
<text text-anchor="middle" x="209.051" y="-396.211" font-family="Times,serif" font-size="11.00">StaticPagesController</text>
<polyline fill="none" stroke="black" points="140.006,-389.411 278.096,-389.411 "/>
<text text-anchor="start" x="148.006" y="-371.411" font-family="Times,serif" font-size="11.00">about</text>
<text text-anchor="start" x="148.006" y="-354.611" font-family="Times,serif" font-size="11.00">contact</text>
<text text-anchor="start" x="148.006" y="-337.811" font-family="Times,serif" font-size="11.00">help</text>
<text text-anchor="start" x="148.006" y="-321.011" font-family="Times,serif" font-size="11.00">home</text>
<polyline fill="none" stroke="black" points="140.006,-314.211 278.096,-314.211 "/>
<polyline fill="none" stroke="black" points="140.006,-290.211 278.096,-290.211 "/>
<text text-anchor="start" x="148.006" y="-272.211" font-family="Times,serif" font-size="11.00">_layout</text>
</g>
<!-- ApplicationController&#45;&gt;StaticPagesController -->
<g id="edge2" class="edge"><title>ApplicationController&#45;&gt;StaticPagesController</title>
<path fill="none" stroke="black" d="M145.428,-256.587C147.567,-259.385 149.739,-262.226 151.927,-265.088"/>
</g>
<!-- UsersController -->
<g id="node4" class="node"><title>UsersController</title>
<polyline fill="none" stroke="black" points="11.6431,-0.5 93.0708,-0.5 "/>
<path fill="none" stroke="black" d="M93.0708,-0.5C99.0708,-0.5 105.071,-6.5 105.071,-12.5"/>
<polyline fill="none" stroke="black" points="105.071,-12.5 105.071,-86.9 "/>
<path fill="none" stroke="black" d="M105.071,-86.9C105.071,-92.9 99.0708,-98.9 93.0708,-98.9"/>
<polyline fill="none" stroke="black" points="93.0708,-98.9 11.6431,-98.9 "/>
<path fill="none" stroke="black" d="M11.6431,-98.9C5.64307,-98.9 -0.356934,-92.9 -0.356934,-86.9"/>
<polyline fill="none" stroke="black" points="-0.356934,-86.9 -0.356934,-12.5 "/>
<path fill="none" stroke="black" d="M-0.356934,-12.5C-0.356934,-6.5 5.64307,-0.5 11.6431,-0.5"/>
<text text-anchor="middle" x="52.3569" y="-80.9" font-family="Times,serif" font-size="11.00">UsersController</text>
<polyline fill="none" stroke="black" points="-0.356934,-74.1 105.071,-74.1 "/>
<text text-anchor="start" x="7.64307" y="-56.1" font-family="Times,serif" font-size="11.00">new</text>
<polyline fill="none" stroke="black" points="-0.356934,-49.3 105.071,-49.3 "/>
<polyline fill="none" stroke="black" points="-0.356934,-25.3 105.071,-25.3 "/>
<text text-anchor="start" x="7.64307" y="-7.3" font-family="Times,serif" font-size="11.00">_layout</text>
</g>
<!-- ApplicationController&#45;&gt;UsersController -->
<g id="edge4" class="edge"><title>ApplicationController&#45;&gt;UsersController</title>
<path fill="none" stroke="black" d="M90.3284,-157.806C83.737,-139.04 76.2344,-117.68 69.6487,-98.9301"/>
</g>
</g>
</svg>
