<?xml version="1.0" encoding="UTF-8" standalone="no"?>
<!DOCTYPE svg PUBLIC "-//W3C//DTD SVG 1.1//EN"
 "http://www.w3.org/Graphics/SVG/1.1/DTD/svg11.dtd">
<!-- Generated by graphviz version 2.28.0 (20120909.1057)
 -->
<!-- Title: controllers_diagram Pages: 1 -->
<svg width="701pt" height="744pt"
 viewBox="0.00 0.00 701.22 744.17" xmlns="http://www.w3.org/2000/svg" xmlns:xlink="http://www.w3.org/1999/xlink">
<g id="graph1" class="graph" transform="scale(1 1) rotate(0) translate(4 740.172)">
<title>controllers_diagram</title>
<polygon fill="white" stroke="white" points="-4,5 -4,-740.172 698.217,-740.172 698.217,5 -4,5"/>
<!-- _diagram_info -->
<g id="node1" class="node"><title>_diagram_info</title>
<text text-anchor="start" x="493.841" y="-609" font-family="Times,serif" font-size="13.00">Controllers diagram</text>
<text text-anchor="start" x="493.841" y="-593.4" font-family="Times,serif" font-size="13.00">Date: Oct 15 2012 &#45; 08:53</text>
<text text-anchor="start" x="493.841" y="-577.8" font-family="Times,serif" font-size="13.00">Migration version: 20121010001608</text>
<text text-anchor="start" x="493.841" y="-562.2" font-family="Times,serif" font-size="13.00">Generated by RailRoady 1.1.0</text>
<text text-anchor="start" x="493.841" y="-546.6" font-family="Times,serif" font-size="13.00">http://railroady.prestonlee.com</text>
</g>
<!-- ApplicationController -->
<g id="node2" class="node"><title>ApplicationController</title>
<polyline fill="none" stroke="black" points="191.433,-294.672 370.067,-294.672 "/>
<path fill="none" stroke="black" d="M370.067,-294.672C376.067,-294.672 382.067,-300.672 382.067,-306.672"/>
<polyline fill="none" stroke="black" points="382.067,-306.672 382.067,-381.072 "/>
<path fill="none" stroke="black" d="M382.067,-381.072C382.067,-387.072 376.067,-393.072 370.067,-393.072"/>
<polyline fill="none" stroke="black" points="370.067,-393.072 191.433,-393.072 "/>
<path fill="none" stroke="black" d="M191.433,-393.072C185.433,-393.072 179.433,-387.072 179.433,-381.072"/>
<polyline fill="none" stroke="black" points="179.433,-381.072 179.433,-306.672 "/>
<path fill="none" stroke="black" d="M179.433,-306.672C179.433,-300.672 185.433,-294.672 191.433,-294.672"/>
<text text-anchor="middle" x="280.75" y="-375.072" font-family="Times,serif" font-size="11.00">ApplicationController</text>
<polyline fill="none" stroke="black" points="179.433,-368.272 382.067,-368.272 "/>
<text text-anchor="start" x="187.433" y="-350.272" font-family="Times,serif" font-size="11.00">_one_time_conditions_valid_14?</text>
<polyline fill="none" stroke="black" points="179.433,-343.472 382.067,-343.472 "/>
<polyline fill="none" stroke="black" points="179.433,-319.472 382.067,-319.472 "/>
<text text-anchor="start" x="187.433" y="-301.472" font-family="Times,serif" font-size="11.00">_layout</text>
</g>
<!-- SessionsController -->
<g id="node3" class="node"><title>SessionsController</title>
<polyline fill="none" stroke="black" points="516.469,-322.046 614.249,-322.046 "/>
<path fill="none" stroke="black" d="M614.249,-322.046C620.249,-322.046 626.249,-328.046 626.249,-334.046"/>
<polyline fill="none" stroke="black" points="626.249,-334.046 626.249,-442.046 "/>
<path fill="none" stroke="black" d="M626.249,-442.046C626.249,-448.046 620.249,-454.046 614.249,-454.046"/>
<polyline fill="none" stroke="black" points="614.249,-454.046 516.469,-454.046 "/>
<path fill="none" stroke="black" d="M516.469,-454.046C510.469,-454.046 504.469,-448.046 504.469,-442.046"/>
<polyline fill="none" stroke="black" points="504.469,-442.046 504.469,-334.046 "/>
<path fill="none" stroke="black" d="M504.469,-334.046C504.469,-328.046 510.469,-322.046 516.469,-322.046"/>
<text text-anchor="middle" x="565.359" y="-436.046" font-family="Times,serif" font-size="11.00">SessionsController</text>
<polyline fill="none" stroke="black" points="504.469,-429.246 626.249,-429.246 "/>
<text text-anchor="start" x="512.469" y="-411.246" font-family="Times,serif" font-size="11.00">create</text>
<text text-anchor="start" x="512.469" y="-394.446" font-family="Times,serif" font-size="11.00">destroy</text>
<text text-anchor="start" x="512.469" y="-377.646" font-family="Times,serif" font-size="11.00">new</text>
<polyline fill="none" stroke="black" points="504.469,-370.846 626.249,-370.846 "/>
<polyline fill="none" stroke="black" points="504.469,-346.846 626.249,-346.846 "/>
<text text-anchor="start" x="512.469" y="-328.846" font-family="Times,serif" font-size="11.00">_layout</text>
</g>
<!-- ApplicationController&#45;&gt;SessionsController -->
<g id="edge2" class="edge"><title>ApplicationController&#45;&gt;SessionsController</title>
<path fill="none" stroke="black" d="M382.295,-359.632C423.003,-365.951 468.571,-373.023 504.061,-378.532"/>
</g>
<!-- StaticPagesController -->
<g id="node4" class="node"><title>StaticPagesController</title>
<polyline fill="none" stroke="black" points="121.023,-0.5 235.113,-0.5 "/>
<path fill="none" stroke="black" d="M235.113,-0.5C241.113,-0.5 247.113,-6.5 247.113,-12.5"/>
<polyline fill="none" stroke="black" points="247.113,-12.5 247.113,-137.3 "/>
<path fill="none" stroke="black" d="M247.113,-137.3C247.113,-143.3 241.113,-149.3 235.113,-149.3"/>
<polyline fill="none" stroke="black" points="235.113,-149.3 121.023,-149.3 "/>
<path fill="none" stroke="black" d="M121.023,-149.3C115.023,-149.3 109.023,-143.3 109.023,-137.3"/>
<polyline fill="none" stroke="black" points="109.023,-137.3 109.023,-12.5 "/>
<path fill="none" stroke="black" d="M109.023,-12.5C109.023,-6.5 115.023,-0.5 121.023,-0.5"/>
<text text-anchor="middle" x="178.068" y="-131.3" font-family="Times,serif" font-size="11.00">StaticPagesController</text>
<polyline fill="none" stroke="black" points="109.023,-124.5 247.113,-124.5 "/>
<text text-anchor="start" x="117.023" y="-106.5" font-family="Times,serif" font-size="11.00">about</text>
<text text-anchor="start" x="117.023" y="-89.7" font-family="Times,serif" font-size="11.00">contact</text>
<text text-anchor="start" x="117.023" y="-72.9" font-family="Times,serif" font-size="11.00">help</text>
<text text-anchor="start" x="117.023" y="-56.1" font-family="Times,serif" font-size="11.00">home</text>
<polyline fill="none" stroke="black" points="109.023,-49.3 247.113,-49.3 "/>
<polyline fill="none" stroke="black" points="109.023,-25.3 247.113,-25.3 "/>
<text text-anchor="start" x="117.023" y="-7.3" font-family="Times,serif" font-size="11.00">_layout</text>
</g>
<!-- ApplicationController&#45;&gt;StaticPagesController -->
<g id="edge4" class="edge"><title>ApplicationController&#45;&gt;StaticPagesController</title>
<path fill="none" stroke="black" d="M261.916,-294.538C246.4,-253.893 224.154,-195.621 206.475,-149.31"/>
</g>
<!-- UsersController -->
<g id="node5" class="node"><title>UsersController</title>
<polyline fill="none" stroke="black" points="11.8413,-402.072 190.476,-402.072 "/>
<path fill="none" stroke="black" d="M190.476,-402.072C196.476,-402.072 202.476,-408.072 202.476,-414.072"/>
<polyline fill="none" stroke="black" points="202.476,-414.072 202.476,-723.672 "/>
<path fill="none" stroke="black" d="M202.476,-723.672C202.476,-729.672 196.476,-735.672 190.476,-735.672"/>
<polyline fill="none" stroke="black" points="190.476,-735.672 11.8413,-735.672 "/>
<path fill="none" stroke="black" d="M11.8413,-735.672C5.84131,-735.672 -0.158691,-729.672 -0.158691,-723.672"/>
<polyline fill="none" stroke="black" points="-0.158691,-723.672 -0.158691,-414.072 "/>
<path fill="none" stroke="black" d="M-0.158691,-414.072C-0.158691,-408.072 5.84131,-402.072 11.8413,-402.072"/>
<text text-anchor="middle" x="101.159" y="-717.672" font-family="Times,serif" font-size="11.00">UsersController</text>
<polyline fill="none" stroke="black" points="-0.158691,-710.872 202.476,-710.872 "/>
<text text-anchor="start" x="7.84131" y="-692.872" font-family="Times,serif" font-size="11.00">_one_time_conditions_valid_54?</text>
<text text-anchor="start" x="7.84131" y="-676.072" font-family="Times,serif" font-size="11.00">_one_time_conditions_valid_58?</text>
<text text-anchor="start" x="7.84131" y="-659.272" font-family="Times,serif" font-size="11.00">_one_time_conditions_valid_62?</text>
<text text-anchor="start" x="7.84131" y="-642.472" font-family="Times,serif" font-size="11.00">_one_time_conditions_valid_66?</text>
<text text-anchor="start" x="7.84131" y="-625.672" font-family="Times,serif" font-size="11.00">create</text>
<text text-anchor="start" x="7.84131" y="-608.872" font-family="Times,serif" font-size="11.00">destroy</text>
<text text-anchor="start" x="7.84131" y="-592.072" font-family="Times,serif" font-size="11.00">edit</text>
<text text-anchor="start" x="7.84131" y="-575.272" font-family="Times,serif" font-size="11.00">index</text>
<text text-anchor="start" x="7.84131" y="-558.472" font-family="Times,serif" font-size="11.00">new</text>
<text text-anchor="start" x="7.84131" y="-541.672" font-family="Times,serif" font-size="11.00">show</text>
<text text-anchor="start" x="7.84131" y="-524.872" font-family="Times,serif" font-size="11.00">update</text>
<polyline fill="none" stroke="black" points="-0.158691,-518.072 202.476,-518.072 "/>
<polyline fill="none" stroke="black" points="-0.158691,-494.072 202.476,-494.072 "/>
<text text-anchor="start" x="7.84131" y="-476.072" font-family="Times,serif" font-size="11.00">_layout</text>
<text text-anchor="start" x="7.84131" y="-459.272" font-family="Times,serif" font-size="11.00">admin_user</text>
<text text-anchor="start" x="7.84131" y="-442.472" font-family="Times,serif" font-size="11.00">correct_user</text>
<text text-anchor="start" x="7.84131" y="-425.672" font-family="Times,serif" font-size="11.00">signed_in_user</text>
<text text-anchor="start" x="7.84131" y="-408.872" font-family="Times,serif" font-size="11.00">signing_up</text>
</g>
<!-- ApplicationController&#45;&gt;UsersController -->
<g id="edge6" class="edge"><title>ApplicationController&#45;&gt;UsersController</title>
<path fill="none" stroke="black" d="M241.338,-393.249C229.67,-407.867 216.325,-424.587 202.61,-441.769"/>
</g>
</g>
</svg>
