<?xml version="1.0" encoding="UTF-8" standalone="no"?>
<!DOCTYPE svg PUBLIC "-//W3C//DTD SVG 1.1//EN"
 "http://www.w3.org/Graphics/SVG/1.1/DTD/svg11.dtd">
<!-- Generated by graphviz version 2.28.0 (20120909.1057)
 -->
<!-- Title: models_diagram Pages: 1 -->
<svg width="312pt" height="166pt"
 viewBox="0.00 0.00 312.00 166.00" xmlns="http://www.w3.org/2000/svg" xmlns:xlink="http://www.w3.org/1999/xlink">
<g id="graph1" class="graph" transform="scale(1 1) rotate(0) translate(4 162)">
<title>models_diagram</title>
<polygon fill="white" stroke="white" points="-4,5 -4,-162 309,-162 309,5 -4,5"/>
<!-- _diagram_info -->
<g id="node1" class="node"><title>_diagram_info</title>
<text text-anchor="start" x="7.31226" y="-141" font-family="Times,serif" font-size="13.00">Models diagram</text>
<text text-anchor="start" x="7.31226" y="-125.4" font-family="Times,serif" font-size="13.00">Date: Oct 15 2012 &#45; 08:53</text>
<text text-anchor="start" x="7.31226" y="-109.8" font-family="Times,serif" font-size="13.00">Migration version: 20121010001608</text>
<text text-anchor="start" x="7.31226" y="-94.2" font-family="Times,serif" font-size="13.00">Generated by RailRoady 1.1.0</text>
<text text-anchor="start" x="7.31226" y="-78.6" font-family="Times,serif" font-size="13.00">http://railroady.prestonlee.com</text>
</g>
<!-- Micropost -->
<g id="node2" class="node"><title>Micropost</title>
<ellipse fill="none" stroke="black" cx="254" cy="-18" rx="50.6014" ry="18"/>
<text text-anchor="middle" x="254" y="-12.4" font-family="Times,serif" font-size="11.00">Micropost</text>
</g>
<!-- User -->
<g id="node3" class="node"><title>User</title>
<ellipse fill="none" stroke="black" cx="254" cy="-115" rx="28.9087" ry="18"/>
<text text-anchor="middle" x="254" y="-109.4" font-family="Times,serif" font-size="11.00">User</text>
</g>
<!-- User&#45;&gt;Micropost -->
<g id="edge2" class="edge"><title>User&#45;&gt;Micropost</title>
<path fill="none" stroke="#d2334e" d="M254,-88.4138C254,-75.5178 254,-59.8618 254,-46.6847"/>
<ellipse fill="none" stroke="#d2334e" cx="254" cy="-92.5755" rx="4" ry="4"/>
<polygon fill="#d2334e" stroke="#d2334e" points="254,-46.314 258.5,-36.314 254,-41.314 254,-36.314 254,-36.314 254,-36.314 254,-41.314 249.5,-36.314 254,-46.314 254,-46.314"/>
</g>
</g>
</svg>
