<?xml version="1.0" encoding="UTF-8" standalone="no"?>
<!DOCTYPE svg PUBLIC "-//W3C//DTD SVG 1.1//EN"
 "http://www.w3.org/Graphics/SVG/1.1/DTD/svg11.dtd">
<!-- Generated by graphviz version 2.28.0 (20120909.1057)
 -->
<!-- Title: models_diagram Pages: 1 -->
<svg width="419pt" height="364pt"
 viewBox="0.00 0.00 419.00 364.00" xmlns="http://www.w3.org/2000/svg" xmlns:xlink="http://www.w3.org/1999/xlink">
<g id="graph1" class="graph" transform="scale(1 1) rotate(0) translate(4 360)">
<title>models_diagram</title>
<polygon fill="white" stroke="white" points="-4,5 -4,-360 416,-360 416,5 -4,5"/>
<!-- _diagram_info -->
<g id="node1" class="node"><title>_diagram_info</title>
<text text-anchor="start" x="7.31226" y="-281" font-family="Times,serif" font-size="13.00">Models diagram</text>
<text text-anchor="start" x="7.31226" y="-265.4" font-family="Times,serif" font-size="13.00">Date: Oct 15 2012 &#45; 08:53</text>
<text text-anchor="start" x="7.31226" y="-249.8" font-family="Times,serif" font-size="13.00">Migration version: 20121010001608</text>
<text text-anchor="start" x="7.31226" y="-234.2" font-family="Times,serif" font-size="13.00">Generated by RailRoady 1.1.0</text>
<text text-anchor="start" x="7.31226" y="-218.6" font-family="Times,serif" font-size="13.00">http://railroady.prestonlee.com</text>
</g>
<!-- Micropost -->
<g id="node2" class="node"><title>Micropost</title>
<polyline fill="none" stroke="black" points="263.495,-0.6 372.505,-0.6 "/>
<path fill="none" stroke="black" d="M372.505,-0.6C378.505,-0.6 384.505,-6.6 384.505,-12.6"/>
<polyline fill="none" stroke="black" points="384.505,-12.6 384.505,-105.4 "/>
<path fill="none" stroke="black" d="M384.505,-105.4C384.505,-111.4 378.505,-117.4 372.505,-117.4"/>
<polyline fill="none" stroke="black" points="372.505,-117.4 263.495,-117.4 "/>
<path fill="none" stroke="black" d="M263.495,-117.4C257.495,-117.4 251.495,-111.4 251.495,-105.4"/>
<polyline fill="none" stroke="black" points="251.495,-105.4 251.495,-12.6 "/>
<path fill="none" stroke="black" d="M251.495,-12.6C251.495,-6.6 257.495,-0.6 263.495,-0.6"/>
<text text-anchor="middle" x="318" y="-99.4" font-family="Times,serif" font-size="11.00">Micropost</text>
<polyline fill="none" stroke="black" points="251.495,-92.6 384.505,-92.6 "/>
<text text-anchor="start" x="259.495" y="-74.6" font-family="Times,serif" font-size="11.00">id :integer</text>
<text text-anchor="start" x="259.495" y="-57.8" font-family="Times,serif" font-size="11.00">content :string</text>
<text text-anchor="start" x="259.495" y="-41" font-family="Times,serif" font-size="11.00">user_id :integer</text>
<text text-anchor="start" x="259.495" y="-24.2" font-family="Times,serif" font-size="11.00">created_at :datetime</text>
<text text-anchor="start" x="259.495" y="-7.4" font-family="Times,serif" font-size="11.00">updated_at :datetime</text>
</g>
<!-- User -->
<g id="node3" class="node"><title>User</title>
<polyline fill="none" stroke="black" points="236.646,-154.6 399.354,-154.6 "/>
<path fill="none" stroke="black" d="M399.354,-154.6C405.354,-154.6 411.354,-160.6 411.354,-166.6"/>
<polyline fill="none" stroke="black" points="411.354,-166.6 411.354,-343.4 "/>
<path fill="none" stroke="black" d="M411.354,-343.4C411.354,-349.4 405.354,-355.4 399.354,-355.4"/>
<polyline fill="none" stroke="black" points="399.354,-355.4 236.646,-355.4 "/>
<path fill="none" stroke="black" d="M236.646,-355.4C230.646,-355.4 224.646,-349.4 224.646,-343.4"/>
<polyline fill="none" stroke="black" points="224.646,-343.4 224.646,-166.6 "/>
<path fill="none" stroke="black" d="M224.646,-166.6C224.646,-160.6 230.646,-154.6 236.646,-154.6"/>
<text text-anchor="middle" x="318" y="-337.4" font-family="Times,serif" font-size="11.00">User</text>
<polyline fill="none" stroke="black" points="224.646,-330.6 411.354,-330.6 "/>
<text text-anchor="start" x="232.646" y="-312.6" font-family="Times,serif" font-size="11.00">id :integer</text>
<text text-anchor="start" x="232.646" y="-295.8" font-family="Times,serif" font-size="11.00">name :string</text>
<text text-anchor="start" x="232.646" y="-279" font-family="Times,serif" font-size="11.00">email :string</text>
<text text-anchor="start" x="232.646" y="-262.2" font-family="Times,serif" font-size="11.00">created_at :datetime</text>
<text text-anchor="start" x="232.646" y="-245.4" font-family="Times,serif" font-size="11.00">updated_at :datetime</text>
<text text-anchor="start" x="232.646" y="-228.6" font-family="Times,serif" font-size="11.00">password_digest :string</text>
<text text-anchor="start" x="232.646" y="-211.8" font-family="Times,serif" font-size="11.00">password :string</text>
<text text-anchor="start" x="232.646" y="-195" font-family="Times,serif" font-size="11.00">password_confirmation :string</text>
<text text-anchor="start" x="232.646" y="-178.2" font-family="Times,serif" font-size="11.00">remember_token :string</text>
<text text-anchor="start" x="232.646" y="-161.4" font-family="Times,serif" font-size="11.00">admin :boolean</text>
</g>
<!-- User&#45;&gt;Micropost -->
<g id="edge2" class="edge"><title>User&#45;&gt;Micropost</title>
<path fill="none" stroke="#db2dc9" d="M318,-146.157C318,-139.858 318,-133.621 318,-127.553"/>
<ellipse fill="none" stroke="#db2dc9" cx="318" cy="-150.443" rx="4" ry="4"/>
<polygon fill="#db2dc9" stroke="#db2dc9" points="318,-127.521 322.5,-117.521 318,-122.521 318,-117.521 318,-117.521 318,-117.521 318,-122.521 313.5,-117.521 318,-127.521 318,-127.521"/>
</g>
</g>
</svg>
