<?xml version="1.0" encoding="UTF-8" standalone="no"?>
<!DOCTYPE svg PUBLIC "-//W3C//DTD SVG 1.1//EN"
 "http://www.w3.org/Graphics/SVG/1.1/DTD/svg11.dtd">
<!-- Generated by graphviz version 2.28.0 (20120909.1057)
 -->
<!-- Title: models_diagram Pages: 1 -->
<svg width="365pt" height="126pt"
 viewBox="0.00 0.00 365.00 126.00" xmlns="http://www.w3.org/2000/svg" xmlns:xlink="http://www.w3.org/1999/xlink">
<g id="graph1" class="graph" transform="scale(1 1) rotate(0) translate(4 122)">
<title>models_diagram</title>
<polygon fill="white" stroke="white" points="-4,5 -4,-122 362,-122 362,5 -4,5"/>
<!-- _diagram_info -->
<g id="node1" class="node"><title>_diagram_info</title>
<text text-anchor="start" x="7.31226" y="-85" font-family="Times,serif" font-size="13.00">Models diagram</text>
<text text-anchor="start" x="7.31226" y="-69.4" font-family="Times,serif" font-size="13.00">Date: Sep 24 2012 &#45; 08:43</text>
<text text-anchor="start" x="7.31226" y="-53.8" font-family="Times,serif" font-size="13.00">Migration version: 20120923080222</text>
<text text-anchor="start" x="7.31226" y="-38.2" font-family="Times,serif" font-size="13.00">Generated by RailRoady 1.0.9</text>
<text text-anchor="start" x="7.31226" y="-22.6" font-family="Times,serif" font-size="13.00">http://railroady.prestonlee.com</text>
</g>
<!-- User -->
<g id="node2" class="node"><title>User</title>
<polyline fill="none" stroke="black" points="236.495,-0.6 345.505,-0.6 "/>
<path fill="none" stroke="black" d="M345.505,-0.6C351.505,-0.6 357.505,-6.6 357.505,-12.6"/>
<polyline fill="none" stroke="black" points="357.505,-12.6 357.505,-105.4 "/>
<path fill="none" stroke="black" d="M357.505,-105.4C357.505,-111.4 351.505,-117.4 345.505,-117.4"/>
<polyline fill="none" stroke="black" points="345.505,-117.4 236.495,-117.4 "/>
<path fill="none" stroke="black" d="M236.495,-117.4C230.495,-117.4 224.495,-111.4 224.495,-105.4"/>
<polyline fill="none" stroke="black" points="224.495,-105.4 224.495,-12.6 "/>
<path fill="none" stroke="black" d="M224.495,-12.6C224.495,-6.6 230.495,-0.6 236.495,-0.6"/>
<text text-anchor="middle" x="291" y="-99.4" font-family="Times,serif" font-size="11.00">User</text>
<polyline fill="none" stroke="black" points="224.495,-92.6 357.505,-92.6 "/>
<text text-anchor="start" x="232.495" y="-74.6" font-family="Times,serif" font-size="11.00">id :integer</text>
<text text-anchor="start" x="232.495" y="-57.8" font-family="Times,serif" font-size="11.00">name :string</text>
<text text-anchor="start" x="232.495" y="-41" font-family="Times,serif" font-size="11.00">email :string</text>
<text text-anchor="start" x="232.495" y="-24.2" font-family="Times,serif" font-size="11.00">created_at :datetime</text>
<text text-anchor="start" x="232.495" y="-7.4" font-family="Times,serif" font-size="11.00">updated_at :datetime</text>
</g>
</g>
</svg>
